                                                                        S      1
,,,6Hcotter,22HAutodesk Inventor 2019,7Hunknown,32,38,7,99,15,,1.,2,2HMMG      1
,1,0.08,15H20210806.222521,0.01,10000.,5Hganes,,11,0,15H20210118.112556;G      2
     186       1                                                00000000D      1
     186             -71       1       0                               0D      2
     514       2                                                00010000D      3
     514                       1       1                               0D      4
     510       3                                                00010000D      5
     510             -71       1       1                               0D      6
     510       4                                                00010000D      7
     510             -71       1       1                               0D      8
     510       5                                                00010000D      9
     510             -71       1       1                               0D     10
     510       6                                                00010000D     11
     510             -71       1       1                               0D     12
     510       7                                                00010000D     13
     510             -71       1       1                               0D     14
     510       8                                                00010000D     15
     510             -71       1       1                               0D     16
     508       9                                                00010000D     17
     508                       1       1                               0D     18
     508      10                                                00010000D     19
     508                       1       1                               0D     20
     508      11                                                00010000D     21
     508                       1       1                               0D     22
     508      12                                                00010000D     23
     508                       1       1                               0D     24
     508      13                                                00010000D     25
     508                       1       1                               0D     26
     508      14                                                00010000D     27
     508                       1       1                               0D     28
     126      15                                                00010000D     29
     126       0               4       0                               0D     30
     126      19                                                00010000D     31
     126       0               3       0                               0D     32
     126      22                                                00010000D     33
     126       0               4       0                               0D     34
     126      26                                                00010000D     35
     126       0               2       0                               0D     36
     126      28                                                00010000D     37
     126       0               2       0                               0D     38
     126      30                                                00010000D     39
     126       0               2       0                               0D     40
     126      32                                                00010000D     41
     126       0               2       0                               0D     42
     126      34                                                00010000D     43
     126       0               2       0                               0D     44
     126      36                                                00010000D     45
     126       0               2       0                               0D     46
     126      38                                                00010000D     47
     126       0               2       0                               0D     48
     126      40                                                00010000D     49
     126       0               2       0                               0D     50
     126      42                                                00010000D     51
     126       0               2       0                               0D     52
     128      44                                                00010000D     53
     128       0     -71       6       0                               0D     54
     128      50                                                00010000D     55
     128       0     -71       4       0                               0D     56
     128      54                                                00010000D     57
     128       0     -71       5       0                               0D     58
     128      59                                                00010000D     59
     128       0     -71       4       0                               0D     60
     128      63                                                00010000D     61
     128       0     -71       5       0                               0D     62
     128      68                                                00010000D     63
     128       0     -71       4       0                               0D     64
     502      72                                                00010000D     65
     502                       2       1                               0D     66
     504      74                                                00010001D     67
     504                       3       1                               0D     68
     406      77                                                00000000D     69
     406                       1      15                               0D     70
     314      78                                                00000200D     71
     314                       1       0                               0D     72
186,3,1,0,0,1,69;                                                      1P      1
514,6,5,1,7,1,9,1,11,1,13,1,15,1;                                      3P      2
510,53,1,1,17;                                                         5P      3
510,55,1,1,19;                                                         7P      4
510,57,1,1,21;                                                         9P      5
510,59,1,1,23;                                                        11P      6
510,61,1,1,25;                                                        13P      7
510,63,1,1,27;                                                        15P      8
508,4,0,67,1,0,0,0,67,2,0,0,0,67,3,0,0,0,67,4,0,0;                    17P      9
508,4,0,67,2,1,0,0,67,5,0,0,0,67,6,0,0,0,67,7,0,0;                    19P     10
508,4,0,67,1,1,0,0,67,8,0,0,0,67,9,0,0,0,67,5,1,0;                    21P     11
508,4,0,67,6,1,0,0,67,9,1,0,0,67,10,0,0,0,67,11,0,0;                  23P     12
508,4,0,67,3,1,0,0,67,7,1,0,0,67,11,1,0,0,67,12,0,0;                  25P     13
508,4,0,67,8,1,0,0,67,4,1,0,0,67,12,1,0,0,67,10,1,0;                  27P     14
126,1,1,0,0,1,0,-6.3302928218523,-6.3302928218523,                    29P     15
6.47322232048264,6.47322232048264,1.,1.,61.,0.,                       29P     16
-8.88178419700125D-15,64.,0.,128.,-6.3302928218523,                   29P     17
6.47322232048264,0.,0.,0.;                                            29P     18
126,1,1,0,0,1,0,-0.25,-0.25,0.75,0.75,1.,1.,61.,10.,                  31P     19
8.88178419700125D-15,61.,0.,8.88178419700125D-15,-0.25,0.75,0.,       31P     20
0.,0.;                                                                31P     21
126,1,1,0,0,1,0,-6.39824291136508,-6.39824291136508,                  33P     22
6.40527223096985,6.40527223096985,1.,1.,64.,10.,128.,61.,10.,         33P     23
-8.88178419700125D-15,-6.39824291136508,6.40527223096985,0.,0.,       33P     24
0.;                                                                   33P     25
126,1,1,0,0,1,0,0.,0.,1.,1.,1.,1.,64.,0.,128.,64.,10.,128.,0.,        35P     26
1.,0.,0.,0.;                                                          35P     27
126,1,1,0,0,1,0,0.,0.,6.1,6.1,1.,1.,0.,0.,0.,61.,0.,0.,0.,6.1,        37P     28
0.,0.,0.;                                                             37P     29
126,1,1,0,0,1,0,0.,0.,1.,1.,1.,1.,0.,10.,0.,0.,0.,0.,0.,1.,0.,        39P     30
0.,0.;                                                                39P     31
126,1,1,0,0,1,0,0.3,0.3,6.4,6.4,1.,1.,61.,10.,0.,0.,10.,0.,0.3,       41P     32
6.4,0.,0.,0.;                                                         41P     33
126,1,1,0,0,1,0,0.,0.,6.4,6.4,1.,1.,0.,0.,128.,64.,0.,128.,0.,        43P     34
6.4,0.,0.,0.;                                                         43P     35
126,1,1,0,0,1,0,0.,0.,12.8,12.8,1.,1.,0.,0.,0.,0.,0.,128.,0.,         45P     36
12.8,0.,0.,0.;                                                        45P     37
126,1,1,0,0,1,0,0.,0.,1.,1.,1.,1.,0.,10.,128.,0.,0.,128.,0.,1.,       47P     38
0.,0.,0.;                                                             47P     39
126,1,1,0,0,1,0,0.,0.,12.8,12.8,1.,1.,0.,10.,0.,0.,10.,128.,0.,       49P     40
12.8,0.,0.,0.;                                                        49P     41
126,1,1,0,0,1,0,0.,0.,6.4,6.4,1.,1.,64.,10.,128.,0.,10.,128.,0.,      51P     42
6.4,0.,0.,0.;                                                         51P     43
128,1,1,1,1,0,0,1,0,0,-0.001,-0.001,12.8045151423349,                 53P     44
12.8045151423349,-0.001,-0.001,1.001,1.001,1.,1.,1.,1.,               53P     45
60.9997656893465,10.01,-0.00999725454899902,64.0002343106535,         53P     46
10.01,128.009997254549,60.9997656893465,-0.0100000000000011,          53P     47
-0.00999725454899902,64.0002343106535,-0.0100000000000011,            53P     48
128.009997254549,-0.001,12.8045151423349,-0.001,1.001;                53P     49
128,1,1,1,1,0,0,1,0,0,-3.201,-3.201,2.901,2.901,-0.501,-0.501,        55P     50
0.501,0.501,1.,1.,1.,1.,61.01,-0.01,0.,-0.0099999999999989,           55P     51
-0.01,0.,61.01,10.01,0.,-0.0099999999999989,10.01,0.,-3.201,          55P     52
2.901,-0.501,0.501;                                                   55P     53
128,1,1,1,1,0,0,1,0,0,-0.001,-0.001,6.401,6.401,                      57P     54
-0.00100000000000089,-0.00100000000000089,12.801,12.801,1.,1.,        57P     55
1.,1.,-0.01,0.,-0.0100000000000089,64.01,0.,-0.0100000000000089,      57P     56
-0.01,0.,128.01,64.01,0.,128.01,-0.001,6.401,                         57P     57
-0.00100000000000089,12.801;                                          57P     58
128,1,1,1,1,0,0,1,0,0,-0.001,-0.001,1.001,1.001,-0.001,-0.001,        59P     59
12.801,12.801,1.,1.,1.,1.,0.,10.01,-0.01,0.,-0.0099999999999989,      59P     60
-0.01,0.,10.01,128.01,0.,-0.0099999999999989,128.01,-0.001,           59P     61
1.001,-0.001,12.801;                                                  59P     62
128,1,1,1,1,0,0,1,0,0,-0.001,-0.001,6.401,6.401,                      61P     63
-0.00100000000000089,-0.00100000000000089,12.801,12.801,1.,1.,        61P     64
1.,1.,64.01,10.,-0.0100000000000089,-0.0100000000000033,10.,          61P     65
-0.0100000000000089,64.01,10.,128.01,-0.0100000000000033,10.,         61P     66
128.01,-0.001,6.401,-0.00100000000000089,12.801;                      61P     67
128,1,1,1,1,0,0,1,0,0,-3.201,-3.201,3.201,3.201,-0.501,-0.501,        63P     68
0.501,0.501,1.,1.,1.,1.,-0.0099999999999989,-0.01,128.,64.01,         63P     69
-0.01,128.,-0.0099999999999989,10.01,128.,64.01,10.01,128.,           63P     70
-3.201,3.201,-0.501,0.501;                                            63P     71
502,8,61.,0.,0.,64.,0.,128.,61.,10.,0.,64.,10.,128.,0.,0.,0.,0.,      65P     72
10.,0.,0.,0.,128.,0.,10.,128.;                                        65P     73
504,12,29,65,1,65,2,31,65,3,65,1,33,65,4,65,3,35,65,2,65,4,37,        67P     74
65,5,65,1,39,65,6,65,5,41,65,3,65,6,43,65,7,65,2,45,65,5,65,7,        67P     75
47,65,8,65,7,49,65,6,65,8,51,65,4,65,8;                               67P     76
406,1,6HSolid1;                                                       69P     77
314,74.5098039215686,73.7254901960784,72.9411764705882,;              71P     78
S      1G      2D     72P     78                                        T      1
