                                                                        S      1
,,,6Hsocket,22HAutodesk Inventor 2019,7Hunknown,32,38,7,99,15,,1.,2,2HMMG      1
,1,0.08,15H20210806.223707,0.01,10000.,5Hganes,,11,0,15H20210118.113425;G      2
     186       1                                                00000000D      1
     186            -223       1       0                               0D      2
     514       2                                                00010000D      3
     514                       2       1                               0D      4
     510       4                                                00010000D      5
     510            -223       1       1                               0D      6
     510       5                                                00010000D      7
     510            -223       1       1                               0D      8
     510       6                                                00010000D      9
     510            -223       1       1                               0D     10
     510       7                                                00010000D     11
     510            -223       1       1                               0D     12
     510       8                                                00010000D     13
     510            -223       1       1                               0D     14
     510       9                                                00010000D     15
     510            -223       1       1                               0D     16
     510      10                                                00010000D     17
     510            -223       1       1                               0D     18
     510      11                                                00010000D     19
     510            -223       1       1                               0D     20
     510      12                                                00010000D     21
     510            -223       1       1                               0D     22
     510      13                                                00010000D     23
     510            -223       1       1                               0D     24
     510      14                                                00010000D     25
     510            -223       1       1                               0D     26
     510      15                                                00010000D     27
     510            -223       1       1                               0D     28
     510      16                                                00010000D     29
     510            -223       1       1                               0D     30
     510      17                                                00010000D     31
     510            -223       1       1                               0D     32
     510      18                                                00010000D     33
     510            -223       1       1                               0D     34
     510      19                                                00010000D     35
     510            -223       1       1                               0D     36
     510      20                                                00010000D     37
     510            -223       1       1                               0D     38
     510      21                                                00010000D     39
     510            -223       1       1                               0D     40
     508      22                                                00010000D     41
     508                       2       1                               0D     42
     508      24                                                00010000D     43
     508                       1       1                               0D     44
     508      25                                                00010000D     45
     508                       1       1                               0D     46
     508      26                                                00010000D     47
     508                       1       1                               0D     48
     508      27                                                00010000D     49
     508                       2       1                               0D     50
     508      29                                                00010000D     51
     508                       2       1                               0D     52
     508      31                                                00010000D     53
     508                       2       1                               0D     54
     508      33                                                00010000D     55
     508                       1       1                               0D     56
     508      34                                                00010000D     57
     508                       3       1                               0D     58
     508      37                                                00010000D     59
     508                       1       1                               0D     60
     508      38                                                00010000D     61
     508                       2       1                               0D     62
     508      40                                                00010000D     63
     508                       1       1                               0D     64
     508      41                                                00010000D     65
     508                       1       1                               0D     66
     508      42                                                00010000D     67
     508                       1       1                               0D     68
     508      43                                                00010000D     69
     508                       1       1                               0D     70
     508      44                                                00010000D     71
     508                       1       1                               0D     72
     508      45                                                00010000D     73
     508                       1       1                               0D     74
     508      46                                                00010000D     75
     508                       1       1                               0D     76
     508      47                                                00010000D     77
     508                       1       1                               0D     78
     508      48                                                00010000D     79
     508                       3       1                               0D     80
     508      51                                                00010000D     81
     508                       1       1                               0D     82
     508      52                                                00010000D     83
     508                       1       1                               0D     84
     126      53                                                00010000D     85
     126       0               2       0                               0D     86
     126      55                                                00010000D     87
     126       0               4       0                               0D     88
     126      59                                                00010000D     89
     126       0               2       0                               0D     90
     126      61                                                00010000D     91
     126       0               4       0                               0D     92
     126      65                                                00010000D     93
     126       0               2       0                               0D     94
     126      67                                                00010000D     95
     126       0               4       0                               0D     96
     126      71                                                00010000D     97
     126       0               6       0                               0D     98
     126      77                                                00010000D     99
     126       0               6       0                               0D    100
     126      83                                                00010000D    101
     126       0               4       0                               0D    102
     126      87                                                00010000D    103
     126       0               5       0                               0D    104
     126      92                                                00010000D    105
     126       0               4       0                               0D    106
     126      96                                                00010000D    107
     126       0               6       0                               0D    108
     126     102                                                00010000D    109
     126       0               4       0                               0D    110
     126     106                                                00010000D    111
     126       0               5       0                               0D    112
     126     111                                                00010000D    113
     126       0               4       0                               0D    114
     126     115                                                00010000D    115
     126       0               6       0                               0D    116
     126     121                                                00010000D    117
     126       0               2       0                               0D    118
     126     123                                                00010000D    119
     126       0               2       0                               0D    120
     126     125                                                00010000D    121
     126       0               4       0                               0D    122
     126     129                                                00010000D    123
     126       0               2       0                               0D    124
     126     131                                                00010000D    125
     126       0               2       0                               0D    126
     126     133                                                00010000D    127
     126       0               4       0                               0D    128
     126     137                                                00010000D    129
     126       0               2       0                               0D    130
     126     139                                                00010000D    131
     126       0               4       0                               0D    132
     126     143                                                00010000D    133
     126       0               2       0                               0D    134
     126     145                                                00010000D    135
     126       0               2       0                               0D    136
     126     147                                                00010000D    137
     126       0               2       0                               0D    138
     126     149                                                00010000D    139
     126       0               4       0                               0D    140
     126     153                                                00010000D    141
     126       0               2       0                               0D    142
     126     155                                                00010000D    143
     126       0               4       0                               0D    144
     126     159                                                00010000D    145
     126       0               5       0                               0D    146
     126     164                                                00010000D    147
     126       0               5       0                               0D    148
     126     169                                                00010000D    149
     126       0              10       0                               0D    150
     126     179                                                00010000D    151
     126       0               2       0                               0D    152
     126     181                                                00010000D    153
     126       0               6       0                               0D    154
     126     187                                                00010000D    155
     126       0               6       0                               0D    156
     126     193                                                00010000D    157
     126       0               6       0                               0D    158
     126     199                                                00010000D    159
     126       0               6       0                               0D    160
     126     205                                                00010000D    161
     126       0               5       0                               0D    162
     126     210                                                00010000D    163
     126       0               6       0                               0D    164
     126     216                                                00010000D    165
     126       0              10       0                               0D    166
     126     226                                                00010000D    167
     126       0               2       0                               0D    168
     126     228                                                00010000D    169
     126       0              10       0                               0D    170
     126     238                                                00010000D    171
     126       0              10       0                               0D    172
     126     248                                                00010000D    173
     126       0              10       0                               0D    174
     126     258                                                00010000D    175
     126       0               2       0                               0D    176
     126     260                                                00010000D    177
     126       0               2       0                               0D    178
     126     262                                                00010000D    179
     126       0              10       0                               0D    180
     128     272                                                00010000D    181
     128       0    -223       6       0                               0D    182
     128     278                                                00010000D    183
     128       0    -223       6       0                               0D    184
     128     284                                                00010000D    185
     128       0    -223       6       0                               0D    186
     128     290                                                00010000D    187
     128       0    -223       6       0                               0D    188
     128     296                                                00010000D    189
     128       0    -223       6       0                               0D    190
     128     302                                                00010000D    191
     128       0    -223       5       0                               0D    192
     128     307                                                00010000D    193
     128       0    -223       5       0                               0D    194
     128     312                                                00010000D    195
     128       0    -223       5       0                               0D    196
     128     317                                                00010000D    197
     128       0    -223      13       0                               0D    198
     128     330                                                00010000D    199
     128       0    -223       6       0                               0D    200
     128     336                                                00010000D    201
     128       0    -223       5       0                               0D    202
     128     341                                                00010000D    203
     128       0    -223      12       0                               0D    204
     128     353                                                00010000D    205
     128       0    -223       3       0                               0D    206
     128     356                                                00010000D    207
     128       0    -223       3       0                               0D    208
     128     359                                                00010000D    209
     128       0    -223       3       0                               0D    210
     128     362                                                00010000D    211
     128       0    -223      12       0                               0D    212
     128     374                                                00010000D    213
     128       0    -223      11       0                               0D    214
     128     385                                                00010000D    215
     128       0    -223       3       0                               0D    216
     502     388                                                00010000D    217
     502                      15       1                               0D    218
     504     403                                                00010001D    219
     504                      14       1                               0D    220
     406     417                                                00000000D    221
     406                       1      15                               0D    222
     314     418                                                00000200D    223
     314                       1       0                               0D    224
186,3,1,0,0,1,221;                                                     1P      1
514,18,5,1,7,1,9,1,11,1,13,1,15,1,17,1,19,1,21,1,23,1,25,1,27,1,       3P      2
29,1,31,1,33,1,35,1,37,1,39,1;                                         3P      3
510,181,1,1,41;                                                        5P      4
510,183,1,1,43;                                                        7P      5
510,185,1,1,45;                                                        9P      6
510,187,1,1,47;                                                       11P      7
510,189,1,1,49;                                                       13P      8
510,191,1,1,51;                                                       15P      9
510,193,1,1,53;                                                       17P     10
510,195,1,1,55;                                                       19P     11
510,197,1,1,57;                                                       21P     12
510,199,1,1,59;                                                       23P     13
510,201,1,1,61;                                                       25P     14
510,203,3,1,63,65,67;                                                 27P     15
510,205,1,1,69;                                                       29P     16
510,207,2,1,71,73;                                                    31P     17
510,209,2,1,75,77;                                                    33P     18
510,211,1,1,79;                                                       35P     19
510,213,1,1,81;                                                       37P     20
510,215,1,1,83;                                                       39P     21
508,6,0,219,1,0,0,0,219,2,0,0,0,219,3,0,0,0,219,4,0,0,0,219,5,0,      41P     22
0,0,219,6,1,0;                                                        41P     23
508,4,0,219,7,0,0,0,219,6,0,0,0,219,8,0,0,0,219,9,1,0;                43P     24
508,4,0,219,10,0,0,0,219,11,1,0,0,219,12,0,0,0,219,13,0,0;            45P     25
508,4,0,219,14,0,0,0,219,15,0,0,0,219,16,0,0,0,219,2,1,0;             47P     26
508,6,0,219,17,0,0,0,219,9,0,0,0,219,18,0,0,0,219,19,0,0,0,219,       49P     27
20,0,0,0,219,15,1,0;                                                  49P     28
508,6,0,219,21,0,0,0,219,22,1,0,0,219,23,0,0,0,219,24,0,0,0,219,      51P     29
25,0,0,0,219,11,0,0;                                                  51P     30
508,6,0,219,26,0,0,0,219,13,1,0,0,219,27,0,0,0,219,28,0,0,0,219,      53P     31
29,0,0,0,219,30,0,0;                                                  53P     32
508,4,0,219,31,0,0,0,219,30,1,0,0,219,32,0,0,0,219,22,0,0;            55P     33
508,12,0,219,33,0,0,0,219,34,1,0,0,219,35,0,0,0,219,27,1,0,0,         57P     34
219,12,1,0,0,219,25,1,0,0,219,36,0,0,0,219,18,1,0,0,219,8,1,0,0,      57P     35
219,5,1,0,0,219,37,0,0,0,219,34,0,0;                                  57P     36
508,4,0,219,24,1,0,0,219,38,1,0,0,219,19,1,0,0,219,36,1,0;            59P     37
508,6,0,219,28,1,0,0,219,35,1,0,0,219,37,1,0,0,219,4,1,0,0,219,       61P     38
39,1,0,0,219,40,1,0;                                                  61P     39
508,4,0,219,41,0,0,0,219,42,1,0,0,219,43,1,0,0,219,42,0,0;            63P     40
508,4,0,219,26,1,0,0,219,31,1,0,0,219,21,1,0,0,219,10,1,0;            65P     41
508,4,0,219,1,1,0,0,219,7,1,0,0,219,17,1,0,0,219,14,1,0;              67P     42
508,1,0,219,43,0,0;                                                   69P     43
508,1,0,219,33,1,0;                                                   71P     44
508,1,0,219,41,1,0;                                                   73P     45
508,1,0,219,44,1,0;                                                   75P     46
508,1,0,219,45,1,0;                                                   77P     47
508,12,0,219,29,1,0,0,219,40,0,0,0,219,46,1,0,0,219,44,0,0,0,         79P     48
219,46,0,0,0,219,39,0,0,0,219,3,1,0,0,219,16,1,0,0,219,20,1,0,0,      79P     49
219,38,0,0,0,219,23,1,0,0,219,32,1,0;                                 79P     50
508,4,0,219,45,0,0,0,219,47,1,0,0,219,48,0,0,0,219,47,0,0;            81P     51
508,1,0,219,48,1,0;                                                   83P     52
126,1,1,0,0,1,0,-8.8,-8.8,-2.4,-2.4,1.,1.,5.,-19.880895352071,        85P     53
56.,5.,-19.880895352071,120.,-8.8,-2.4,0.,0.,0.;                      85P     54
126,1,1,0,0,1,0,-2.60240273593462,-2.60240273593462,                  87P     55
-1.9880895352071,-1.9880895352071,1.,1.,5.,-26.0240273593462,         87P     56
56.,5.,-19.880895352071,56.,-2.60240273593462,-1.9880895352071,       87P     57
0.,0.,0.;                                                             87P     58
126,1,1,0,0,1,0,-8.,-8.,-4.,-4.,1.,1.,5.,-26.0240273593462,96.,       89P     59
5.,-26.0240273593462,56.,-8.,-4.,0.,0.,0.;                            89P     60
126,1,1,0,0,1,0,-4.01901729282172,-4.01901729282172,                  91P     61
-2.60240273593462,-2.60240273593462,1.,1.,5.,-40.1901729282172,       91P     62
96.,5.,-26.0240273593462,96.,-4.01901729282172,                       91P     63
-2.60240273593462,0.,0.,0.;                                           91P     64
126,1,1,0,0,1,0,-2.4,-2.4,0.,0.,1.,1.,5.,-40.1901729282172,120.,      93P     65
5.,-40.1901729282172,96.,-2.4,0.,0.,0.,0.;                            93P     66
126,1,1,0,0,1,0,-4.01901729282172,-4.01901729282172,                  95P     67
-1.9880895352071,-1.9880895352071,1.,1.,5.,-40.1901729282172,         95P     68
120.,5.,-19.880895352071,120.,-4.01901729282172,                      95P     69
-1.9880895352071,0.,0.,0.;                                            95P     70
126,2,2,0,0,0,0,-1.8171841182042,-1.8171841182042,                    97P     71
-1.8171841182042,-1.32440853538559,-1.32440853538559,                 97P     72
-1.32440853538559,1.,0.969799773271759,1.,5.,-19.880895352071,        97P     73
120.,-2.22044604925031D-15,-21.1383839891407,120.,-5.,                97P     74
-19.880895352071,120.,-1.8171841182042,-1.32440853538559,0.,0.,       97P     75
0.;                                                                   97P     76
126,2,2,0,0,0,0,1.44702375323606,1.44702375323606,                    99P     77
1.44702375323606,1.69456890035373,1.69456890035373,                   99P     78
1.69456890035373,1.,0.992349948844896,1.,-5.,-40.1901729282172,       99P     79
120.,-2.77555756156289D-15,-40.8122155366093,120.,5.,                 99P     80
-40.1901729282172,120.,1.44702375323606,1.69456890035373,0.,0.,       99P     81
0.;                                                                   99P     82
126,1,1,0,0,1,0,-4.01901729282172,-4.01901729282172,                 101P     83
-1.9880895352071,-1.9880895352071,1.,1.,-5.,-40.1901729282172,       101P     84
120.,-5.,-19.880895352071,120.,-4.01901729282172,                    101P     85
-1.9880895352071,0.,0.,0.;                                           101P     86
126,2,2,0,0,0,0,1.32440853538559,1.32440853538559,                   103P     87
1.32440853538559,1.8171841182042,1.8171841182042,                    103P     88
1.8171841182042,1.,0.969799773271759,1.,-5.,19.880895352071,         103P     89
120.,-2.22044604925031D-15,21.1383839891407,120.,5.,                 103P     90
19.880895352071,120.,1.32440853538559,1.8171841182042,0.,0.,0.;      103P     91
126,1,1,0,0,1,0,1.9880895352071,1.9880895352071,                     105P     92
4.01901729282172,4.01901729282172,1.,1.,-5.,19.880895352071,         105P     93
120.,-5.,40.1901729282172,120.,1.9880895352071,4.01901729282172,     105P     94
0.,0.,0.;                                                            105P     95
126,2,2,0,0,0,0,-1.69456890035373,-1.69456890035373,                 107P     96
-1.69456890035373,-1.44702375323606,-1.44702375323606,               107P     97
-1.44702375323606,1.,0.992349948844896,1.,5.,40.1901729282172,       107P     98
120.,-2.77555756156289D-15,40.8122155366093,120.,-5.,                107P     99
40.1901729282172,120.,-1.69456890035373,-1.44702375323606,0.,0.,     107P    100
0.;                                                                  107P    101
126,1,1,0,0,1,0,1.9880895352071,1.9880895352071,                     109P    102
4.01901729282172,4.01901729282172,1.,1.,5.,19.880895352071,120.,     109P    103
5.,40.1901729282172,120.,1.9880895352071,4.01901729282172,0.,0.,     109P    104
0.;                                                                  109P    105
126,2,2,0,0,0,0,1.32440853538559,1.32440853538559,                   111P    106
1.32440853538559,1.8171841182042,1.8171841182042,                    111P    107
1.8171841182042,1.,0.969799773271759,1.,-5.,-19.880895352071,        111P    108
56.,-2.22044604925031D-15,-21.1383839891407,56.,5.,                  111P    109
-19.880895352071,56.,1.32440853538559,1.8171841182042,0.,0.,0.;      111P    110
126,1,1,0,0,1,0,-2.60240273593462,-2.60240273593462,                 113P    111
-1.9880895352071,-1.9880895352071,1.,1.,-5.,-26.0240273593462,       113P    112
56.,-5.,-19.880895352071,56.,-2.60240273593462,-1.9880895352071,     113P    113
0.,0.,0.;                                                            113P    114
126,2,2,0,0,0,0,-1.76061338813961,-1.76061338813961,                 115P    115
-1.76061338813961,-1.38097926545018,-1.38097926545018,               115P    116
-1.38097926545018,1.,0.982038768277221,1.,5.,-26.0240273593462,      115P    117
56.,-1.02695629777827D-14,-26.9846780555199,56.,-5.,                 115P    118
-26.0240273593462,56.,-1.76061338813961,-1.38097926545018,0.,0.,     115P    119
0.;                                                                  115P    120
126,1,1,0,0,1,0,2.4,2.4,8.8,8.8,1.,1.,-5.,-19.880895352071,120.,     117P    121
-5.,-19.880895352071,56.,2.4,8.8,0.,0.,0.;                           117P    122
126,1,1,0,0,1,0,0.,0.,2.4,2.4,1.,1.,-5.,-40.1901729282172,96.,       119P    123
-5.,-40.1901729282172,120.,0.,2.4,0.,0.,0.;                          119P    124
126,1,1,0,0,1,0,2.60240273593462,2.60240273593462,                   121P    125
4.01901729282172,4.01901729282172,1.,1.,-5.,-26.0240273593462,       121P    126
96.,-5.,-40.1901729282172,96.,2.60240273593462,4.01901729282172,     121P    127
0.,0.,0.;                                                            121P    128
126,1,1,0,0,1,0,4.,4.,8.,8.,1.,1.,-5.,-26.0240273593462,56.,-5.,     123P    129
-26.0240273593462,96.,4.,8.,0.,0.,0.;                                123P    130
126,1,1,0,0,1,0,-8.8,-8.8,-2.4,-2.4,1.,1.,-5.,19.880895352071,       125P    131
56.,-5.,19.880895352071,120.,-8.8,-2.4,0.,0.,0.;                     125P    132
126,1,1,0,0,1,0,1.9880895352071,1.9880895352071,                     127P    133
2.60240273593462,2.60240273593462,1.,1.,-5.,19.880895352071,56.,     127P    134
-5.,26.0240273593462,56.,1.9880895352071,2.60240273593462,0.,0.,     127P    135
0.;                                                                  127P    136
126,1,1,0,0,1,0,-8.,-8.,-4.,-4.,1.,1.,-5.,26.0240273593462,96.,      129P    137
-5.,26.0240273593462,56.,-8.,-4.,0.,0.,0.;                           129P    138
126,1,1,0,0,1,0,-4.01901729282172,-4.01901729282172,                 131P    139
-2.60240273593462,-2.60240273593462,1.,1.,-5.,40.1901729282172,      131P    140
96.,-5.,26.0240273593462,96.,-4.01901729282172,                      131P    141
-2.60240273593462,0.,0.,0.;                                          131P    142
126,1,1,0,0,1,0,-2.4,-2.4,0.,0.,1.,1.,-5.,40.1901729282172,120.,     133P    143
-5.,40.1901729282172,96.,-2.4,0.,0.,0.,0.;                           133P    144
126,1,1,0,0,1,0,2.4,2.4,8.8,8.8,1.,1.,5.,19.880895352071,120.,       135P    145
5.,19.880895352071,56.,2.4,8.8,0.,0.,0.;                             135P    146
126,1,1,0,0,1,0,0.,0.,2.4,2.4,1.,1.,5.,40.1901729282172,96.,5.,      137P    147
40.1901729282172,120.,0.,2.4,0.,0.,0.;                               137P    148
126,1,1,0,0,1,0,2.60240273593462,2.60240273593462,                   139P    149
4.01901729282172,4.01901729282172,1.,1.,5.,26.0240273593462,96.,     139P    150
5.,40.1901729282172,96.,2.60240273593462,4.01901729282172,0.,0.,     139P    151
0.;                                                                  139P    152
126,1,1,0,0,1,0,4.,4.,8.,8.,1.,1.,5.,26.0240273593462,56.,5.,        141P    153
26.0240273593462,96.,4.,8.,0.,0.,0.;                                 141P    154
126,1,1,0,0,1,0,1.9880895352071,1.9880895352071,                     143P    155
2.60240273593462,2.60240273593462,1.,1.,5.,19.880895352071,56.,      143P    156
5.,26.0240273593462,56.,1.9880895352071,2.60240273593462,0.,0.,      143P    157
0.;                                                                  143P    158
126,2,2,0,0,0,0,-1.8171841182042,-1.8171841182042,                   145P    159
-1.8171841182042,-1.32440853538559,-1.32440853538559,                145P    160
-1.32440853538559,1.,0.969799773271759,1.,5.,19.880895352071,        145P    161
56.,-2.22044604925031D-15,21.1383839891407,56.,-5.,                  145P    162
19.880895352071,56.,-1.8171841182042,-1.32440853538559,0.,0.,0.;     145P    163
126,2,2,0,0,0,0,1.38097926545018,1.38097926545018,                   147P    164
1.38097926545018,1.76061338813961,1.76061338813961,                  147P    165
1.76061338813961,1.,0.982038768277221,1.,-5.,26.0240273593462,       147P    166
56.,-1.02695629777827D-14,26.9846780555199,56.,5.,                   147P    167
26.0240273593462,56.,1.38097926545018,1.76061338813961,0.,0.,0.;     147P    168
126,8,2,0,1,0,0,-3.14159265358979,-3.14159265358979,                 149P    169
-3.14159265358979,-1.5707963267949,-1.5707963267949,0.,0.,           149P    170
1.5707963267949,1.5707963267949,3.14159265358979,                    149P    171
3.14159265358979,3.14159265358979,1.,0.707106781186548,1.,           149P    172
0.707106781186548,1.,0.707106781186548,1.,0.707106781186548,1.,      149P    173
40.5,4.95981953654678D-15,144.,40.5,40.5,144.,                       149P    174
-2.47990976827339D-15,40.5,144.,-40.5,40.5,144.,-40.5,0.,144.,       149P    175
-40.5,-40.5,144.,-2.47990976827339D-15,-40.5,144.,40.5,-40.5,        149P    176
144.,40.5,-4.95981953654678D-15,144.,-3.14159265358979,              149P    177
3.14159265358979,0.,0.,0.;                                           149P    178
126,1,1,0,0,1,0,-1.18518518518519,-1.18518518518519,0.,0.,1.,1.,     151P    179
40.5,0.,144.,40.5,0.,96.,-1.18518518518519,0.,0.,0.,0.;              151P    180
126,2,2,0,0,0,0,-4.58861640682585,-4.58861640682585,                 153P    181
-4.58861640682585,-3.14159265358979,-3.14159265358979,               153P    182
-3.14159265358979,1.,0.749485420179559,1.,5.00000000000002,          153P    183
40.1901729282172,96.,40.5,35.7736704086328,96.,40.5,                 153P    184
-4.95981953654678D-15,96.,-4.58861640682585,-3.14159265358979,       153P    185
0.,0.,0.;                                                            153P    186
126,4,2,0,0,0,0,-1.44702375323606,-1.44702375323606,                 155P    187
-1.44702375323606,0.,0.,1.44702375323606,1.44702375323606,           155P    188
1.44702375323606,1.,0.749485420179558,1.,0.749485420179558,1.,       155P    189
-5.,-40.1901729282172,96.,-40.5,-35.7736704086329,96.,-40.5,0.,      155P    190
96.,-40.5,35.7736704086329,96.,-5.,40.1901729282172,96.,             155P    191
-1.44702375323606,1.44702375323606,0.,0.,0.;                         155P    192
126,2,2,0,0,0,0,-3.14159265358979,-3.14159265358979,                 157P    193
-3.14159265358979,-1.69456890035373,-1.69456890035373,               157P    194
-1.69456890035373,1.,0.749485420179558,1.,40.5,                      157P    195
-4.95981953654678D-15,96.,40.5,-35.7736704086329,96.,5.,             157P    196
-40.1901729282172,96.,-3.14159265358979,-1.69456890035373,0.,0.,     157P    197
0.;                                                                  157P    198
126,4,2,0,0,0,0,-1.38097926545018,-1.38097926545018,                 159P    199
-1.38097926545018,0.,0.,1.38097926545018,1.38097926545018,           159P    200
1.38097926545018,1.,0.770934253125069,1.,0.770934253125069,1.,       159P    201
-5.,26.0240273593462,96.,-26.5,21.8932293657992,96.,-26.5,0.,        159P    202
96.,-26.5,-21.8932293657992,96.,-5.,-26.0240273593462,96.,           159P    203
-1.38097926545018,1.38097926545018,0.,0.,0.;                         159P    204
126,2,2,0,0,0,0,-4.52257191903997,-4.52257191903997,                 161P    205
-4.52257191903997,-3.14159265358979,-3.14159265358979,               161P    206
-3.14159265358979,1.,0.77093425312507,1.,5.,-26.0240273593462,       161P    207
96.,26.5,-21.8932293657992,96.,26.5,3.24531401774049D-15,96.,        161P    208
-4.52257191903997,-3.14159265358979,0.,0.,0.;                        161P    209
126,2,2,0,0,0,0,-3.14159265358979,-3.14159265358979,                 163P    210
-3.14159265358979,-1.76061338813961,-1.76061338813961,               163P    211
-1.76061338813961,1.,0.77093425312507,1.,26.5,                       163P    212
3.24531401774049D-15,96.,26.5,21.8932293657992,96.,5.,               163P    213
26.0240273593462,96.,-3.14159265358979,-1.76061338813961,0.,0.,      163P    214
0.;                                                                  163P    215
126,8,2,0,1,0,0,-3.14159265358979,-3.14159265358979,                 165P    216
-3.14159265358979,-1.5707963267949,-1.5707963267949,0.,0.,           165P    217
1.5707963267949,1.5707963267949,3.14159265358979,                    165P    218
3.14159265358979,3.14159265358979,1.,0.707106781186548,1.,           165P    219
0.707106781186548,1.,0.707106781186548,1.,0.707106781186548,1.,      165P    220
20.5,-2.51052593825207D-15,144.,20.5,-20.5,144.,                     165P    221
-1.25526296912604D-15,-20.5,144.,-20.5,-20.5,144.,-20.5,0.,144.,     165P    222
-20.5,20.5,144.,-1.25526296912604D-15,20.5,144.,20.5,20.5,144.,      165P    223
20.5,2.51052593825207D-15,144.,-3.14159265358979,                    165P    224
3.14159265358979,0.,0.,0.;                                           165P    225
126,1,1,0,0,1,0,0.,0.,5.46341463414634,5.46341463414634,1.,1.,       167P    226
20.5,0.,144.,20.5,0.,32.,0.,5.46341463414634,0.,0.,0.;               167P    227
126,8,2,0,1,0,0,-3.14159265358979,-3.14159265358979,                 169P    228
-3.14159265358979,-1.5707963267949,-1.5707963267949,0.,0.,           169P    229
1.5707963267949,1.5707963267949,3.14159265358979,                    169P    230
3.14159265358979,3.14159265358979,1.,0.707106781186548,1.,           169P    231
0.707106781186548,1.,0.707106781186548,1.,0.707106781186548,1.,      169P    232
20.5,-2.51052593825207D-15,32.,20.5,-20.5,32.,                       169P    233
-1.25526296912604D-15,-20.5,32.,-20.5,-20.5,32.,-20.5,0.,32.,        169P    234
-20.5,20.5,32.,-1.25526296912604D-15,20.5,32.,20.5,20.5,32.,         169P    235
20.5,2.51052593825207D-15,32.,-3.14159265358979,                     169P    236
3.14159265358979,0.,0.,0.;                                           169P    237
126,8,2,0,1,0,0,-3.14159265358979,-3.14159265358979,                 171P    238
-3.14159265358979,-1.5707963267949,-1.5707963267949,0.,0.,           171P    239
1.5707963267949,1.5707963267949,3.14159265358979,                    171P    240
3.14159265358979,3.14159265358979,1.,0.707106781186548,1.,           171P    241
0.707106781186547,1.,0.707106781186547,1.,0.707106781186548,1.,      171P    242
26.5,-3.24531401774049D-15,16.,26.5,-26.5,16.,                       171P    243
-1.62265700887024D-15,-26.5,16.,-26.5,-26.5,16.,-26.5,0.,16.,        171P    244
-26.5,26.5,16.,-1.62265700887024D-15,26.5,16.,26.5,26.5,16.,         171P    245
26.5,3.24531401774049D-15,16.,-3.14159265358979,                     171P    246
3.14159265358979,0.,0.,0.;                                           171P    247
126,8,2,0,1,0,0,-3.14159265358979,-3.14159265358979,                 173P    248
-3.14159265358979,-1.5707963267949,-1.5707963267949,0.,0.,           173P    249
1.5707963267949,1.5707963267949,3.14159265358979,                    173P    250
3.14159265358979,3.14159265358979,1.,0.707106781186548,1.,           173P    251
0.707106781186548,1.,0.707106781186548,1.,0.707106781186548,1.,      173P    252
16.,1.95943487863577D-15,16.,16.,16.,16.,-9.79717439317883D-16,      173P    253
16.,16.,-16.,16.,16.,-16.,0.,16.,-16.,-16.,16.,                      173P    254
-9.79717439317883D-16,-16.,16.,16.,-16.,16.,16.,                     173P    255
-1.95943487863577D-15,16.,-3.14159265358979,3.14159265358979,0.,     173P    256
0.,0.;                                                               173P    257
126,1,1,0,0,1,0,-3.0188679245283,-3.0188679245283,0.,0.,1.,1.,       175P    258
26.5,0.,96.,26.5,0.,16.,-3.0188679245283,0.,0.,0.,0.;                175P    259
126,1,1,0,0,1,0,-1.,-1.,0.,0.,1.,1.,16.,0.,16.,16.,0.,0.,-1.,0.,     177P    260
0.,0.,0.;                                                            177P    261
126,8,2,0,1,0,0,-3.14159265358979,-3.14159265358979,                 179P    262
-3.14159265358979,-1.5707963267949,-1.5707963267949,0.,0.,           179P    263
1.5707963267949,1.5707963267949,3.14159265358979,                    179P    264
3.14159265358979,3.14159265358979,1.,0.707106781186548,1.,           179P    265
0.707106781186548,1.,0.707106781186548,1.,0.707106781186548,1.,      179P    266
16.,-1.95943487863577D-15,0.,16.,-16.,0.,-9.79717439317883D-16,      179P    267
-16.,0.,-16.,-16.,0.,-16.,0.,0.,-16.,16.,0.,                         179P    268
-9.79717439317883D-16,16.,0.,16.,16.,0.,16.,                         179P    269
1.95943487863577D-15,0.,-3.14159265358979,3.14159265358979,0.,       179P    270
0.,0.;                                                               179P    271
128,1,1,1,1,0,0,1,0,0,-0.001,-0.001,6.401,6.401,                     181P    272
-4.02001729282172,-4.02001729282172,-1.9870895352071,                181P    273
-1.9870895352071,1.,1.,1.,1.,5.,-40.2001729282172,55.99,5.,          181P    274
-40.2001729282172,120.01,5.,-19.870895352071,55.99,5.,               181P    275
-19.870895352071,120.01,-0.001,6.401,-4.02001729282172,              181P    276
-1.9870895352071;                                                    181P    277
128,1,1,1,1,0,0,1,0,0,-0.00100000000000033,-0.00100000000000033,     183P    278
1.001,1.001,-4.08222155366093,-4.08222155366093,                     183P    279
-1.9870895352071,-1.9870895352071,1.,1.,1.,1.,5.01,                  183P    280
-40.8222155366093,120.,-5.01,-40.8222155366093,120.,5.01,            183P    281
-19.870895352071,120.,-5.01,-19.870895352071,120.,                   183P    282
-0.00100000000000033,1.001,-4.08222155366093,-1.9870895352071;       183P    283
128,1,1,1,1,0,0,1,0,0,-0.00100000000000033,-0.00100000000000033,     185P    284
1.001,1.001,1.9870895352071,1.9870895352071,4.08222155366093,        185P    285
4.08222155366093,1.,1.,1.,1.,5.01,19.870895352071,120.,-5.01,        185P    286
19.870895352071,120.,5.01,40.8222155366093,120.,-5.01,               185P    287
40.8222155366093,120.,-0.00100000000000033,1.001,                    185P    288
1.9870895352071,4.08222155366093;                                    185P    289
128,1,1,1,1,0,0,1,0,0,-0.501,-0.501,0.501,0.501,                     187P    290
-2.69946780555199,-2.69946780555199,-1.9870895352071,                187P    291
-1.9870895352071,1.,1.,1.,1.,-5.01,-26.9946780555199,56.,5.01,       187P    292
-26.9946780555199,56.,-5.01,-19.870895352071,56.,5.01,               187P    293
-19.870895352071,56.,-0.501,0.501,-2.69946780555199,                 187P    294
-1.9870895352071;                                                    187P    295
128,1,1,1,1,0,0,1,0,0,-0.001,-0.001,6.401,6.401,                     189P    296
-4.02001729282172,-4.02001729282172,-1.9870895352071,                189P    297
-1.9870895352071,1.,1.,1.,1.,-5.,-40.2001729282172,120.01,-5.,       189P    298
-40.2001729282172,55.99,-5.,-19.870895352071,120.01,-5.,             189P    299
-19.870895352071,55.99,-0.001,6.401,-4.02001729282172,               189P    300
-1.9870895352071;                                                    189P    301
128,1,1,1,1,0,0,1,0,0,-0.001,-0.001,6.401,6.401,1.9870895352071,     191P    302
1.9870895352071,4.02001729282172,4.02001729282172,1.,1.,1.,1.,       191P    303
-5.,19.870895352071,120.01,-5.,19.870895352071,55.99,-5.,            191P    304
40.2001729282172,120.01,-5.,40.2001729282172,55.99,-0.001,6.401,     191P    305
1.9870895352071,4.02001729282172;                                    191P    306
128,1,1,1,1,0,0,1,0,0,-0.001,-0.001,6.401,6.401,1.9870895352071,     193P    307
1.9870895352071,4.02001729282172,4.02001729282172,1.,1.,1.,1.,       193P    308
5.,19.870895352071,55.99,5.,19.870895352071,120.01,5.,               193P    309
40.2001729282172,55.99,5.,40.2001729282172,120.01,-0.001,6.401,      193P    310
1.9870895352071,4.02001729282172;                                    193P    311
128,1,1,1,1,0,0,1,0,0,-0.501,-0.501,0.501,0.501,1.9870895352071,     195P    312
1.9870895352071,2.69946780555199,2.69946780555199,1.,1.,1.,1.,       195P    313
-5.01,19.870895352071,56.,5.01,19.870895352071,56.,-5.01,            195P    314
26.9946780555199,56.,5.01,26.9946780555199,56.,-0.501,0.501,         195P    315
1.9870895352071,2.69946780555199;                                    195P    316
128,1,8,1,2,0,1,0,0,1,0.,0.,1.18518518518519,1.18518518518519,       197P    317
-3.14159265358979,-3.14159265358979,-3.14159265358979,               197P    318
-1.5707963267949,-1.5707963267949,0.,0.,1.5707963267949,             197P    319
1.5707963267949,3.14159265358979,3.14159265358979,                   197P    320
3.14159265358979,1.,1.,0.707106781186548,0.707106781186548,1.,       197P    321
1.,0.707106781186548,0.707106781186548,1.,1.,0.707106781186548,      197P    322
0.707106781186548,1.,1.,0.707106781186548,0.707106781186548,1.,      197P    323
1.,40.5,0.,144.,40.5,0.,96.,40.5,40.5,144.,40.5,40.5,96.,0.,         197P    324
40.5,144.,0.,40.5,96.,-40.5,40.5,144.,-40.5,40.5,96.,-40.5,0.,       197P    325
144.,-40.5,0.,96.,-40.5,-40.5,144.,-40.5,-40.5,96.,0.,-40.5,         197P    326
144.,0.,-40.5,96.,40.5,-40.5,144.,40.5,-40.5,96.,40.5,0.,144.,       197P    327
40.5,0.,96.,0.,1.18518518518519,-3.14159265358979,                   197P    328
3.14159265358979;                                                    197P    329
128,1,1,1,1,0,0,1,0,0,-4.051,-4.051,-0.499,-0.499,                   199P    330
-4.02001729282172,-4.02001729282172,4.02001729282172,                199P    331
4.02001729282172,1.,1.,1.,1.,-4.99,-40.2001729282172,96.,-40.51,     199P    332
-40.2001729282172,96.,-4.99,40.2001729282172,96.,-40.51,             199P    333
40.2001729282172,96.,-4.051,-0.499,-4.02001729282172,                199P    334
4.02001729282172;                                                    199P    335
128,1,1,1,1,0,0,1,0,0,0.499,0.499,4.051,4.051,-4.02001729282172,     201P    336
-4.02001729282172,4.02001729282172,4.02001729282172,1.,1.,1.,1.,     201P    337
40.51,-40.2001729282172,96.,4.99,-40.2001729282172,96.,40.51,        201P    338
40.2001729282172,96.,4.99,40.2001729282172,96.,0.499,4.051,          201P    339
-4.02001729282172,4.02001729282172;                                  201P    340
128,1,8,1,2,0,1,0,0,1,0.,0.,5.46341463414634,5.46341463414634,       203P    341
-3.14159265358979,-3.14159265358979,-3.14159265358979,               203P    342
-1.5707963267949,-1.5707963267949,0.,0.,1.5707963267949,             203P    343
1.5707963267949,3.14159265358979,3.14159265358979,                   203P    344
3.14159265358979,1.,1.,0.707106781186548,0.707106781186548,1.,       203P    345
1.,0.707106781186548,0.707106781186548,1.,1.,0.707106781186548,      203P    346
0.707106781186548,1.,1.,0.707106781186548,0.707106781186548,1.,      203P    347
1.,20.5,0.,144.,20.5,0.,32.,20.5,-20.5,144.,20.5,-20.5,32.,0.,       203P    348
-20.5,144.,0.,-20.5,32.,-20.5,-20.5,144.,-20.5,-20.5,32.,-20.5,      203P    349
0.,144.,-20.5,0.,32.,-20.5,20.5,144.,-20.5,20.5,32.,0.,20.5,         203P    350
144.,0.,20.5,32.,20.5,20.5,144.,20.5,20.5,32.,20.5,0.,144.,20.5,     203P    351
0.,32.,0.,5.46341463414634,-3.14159265358979,3.14159265358979;       203P    352
128,1,1,1,1,0,0,1,0,0,-2.051,-2.051,2.051,2.051,-2.051,-2.051,       205P    353
2.051,2.051,1.,1.,1.,1.,-20.51,-20.51,32.,20.51,-20.51,32.,          205P    354
-20.51,20.51,32.,20.51,20.51,32.,-2.051,2.051,-2.051,2.051;          205P    355
128,1,1,1,1,0,0,1,0,0,-4.051,-4.051,4.051,4.051,-4.051,-4.051,       207P    356
4.051,4.051,1.,1.,1.,1.,-40.51,-40.51,144.,40.51,-40.51,144.,        207P    357
-40.51,40.51,144.,40.51,40.51,144.,-4.051,4.051,-4.051,4.051;        207P    358
128,1,1,1,1,0,0,1,0,0,-2.651,-2.651,2.651,2.651,-2.651,-2.651,       209P    359
2.651,2.651,1.,1.,1.,1.,26.51,-26.51,16.,-26.51,-26.51,16.,          209P    360
26.51,26.51,16.,-26.51,26.51,16.,-2.651,2.651,-2.651,2.651;          209P    361
128,1,8,1,2,0,1,0,0,1,0.,0.,3.0188679245283,3.0188679245283,         211P    362
-3.14159265358979,-3.14159265358979,-3.14159265358979,               211P    363
-1.5707963267949,-1.5707963267949,0.,0.,1.5707963267949,             211P    364
1.5707963267949,3.14159265358979,3.14159265358979,                   211P    365
3.14159265358979,1.,1.,0.707106781186548,0.707106781186548,1.,       211P    366
1.,0.707106781186548,0.707106781186548,1.,1.,0.707106781186548,      211P    367
0.707106781186548,1.,1.,0.707106781186548,0.707106781186548,1.,      211P    368
1.,26.5,0.,96.,26.5,0.,16.,26.5,26.5,96.,26.5,26.5,16.,0.,26.5,      211P    369
96.,0.,26.5,16.,-26.5,26.5,96.,-26.5,26.5,16.,-26.5,0.,96.,          211P    370
-26.5,0.,16.,-26.5,-26.5,96.,-26.5,-26.5,16.,0.,-26.5,96.,0.,        211P    371
-26.5,16.,26.5,-26.5,96.,26.5,-26.5,16.,26.5,0.,96.,26.5,0.,16.,     211P    372
0.,3.0188679245283,-3.14159265358979,3.14159265358979;               211P    373
128,1,8,1,2,0,1,0,0,1,0.,0.,1.,1.,-3.14159265358979,                 213P    374
-3.14159265358979,-3.14159265358979,-1.5707963267949,                213P    375
-1.5707963267949,0.,0.,1.5707963267949,1.5707963267949,              213P    376
3.14159265358979,3.14159265358979,3.14159265358979,1.,1.,            213P    377
0.707106781186548,0.707106781186548,1.,1.,0.707106781186548,         213P    378
0.707106781186548,1.,1.,0.707106781186548,0.707106781186548,1.,      213P    379
1.,0.707106781186548,0.707106781186548,1.,1.,16.,0.,16.,16.,0.,      213P    380
0.,16.,16.,16.,16.,16.,0.,0.,16.,16.,0.,16.,0.,-16.,16.,16.,         213P    381
-16.,16.,0.,-16.,0.,16.,-16.,0.,0.,-16.,-16.,16.,-16.,-16.,0.,       213P    382
0.,-16.,16.,0.,-16.,0.,16.,-16.,16.,16.,-16.,0.,16.,0.,16.,16.,      213P    383
0.,0.,0.,1.,-3.14159265358979,3.14159265358979;                      213P    384
128,1,1,1,1,0,0,1,0,0,-1.601,-1.601,1.601,1.601,-1.601,-1.601,       215P    385
1.601,1.601,1.,1.,1.,1.,16.01,-16.01,0.,-16.01,-16.01,0.,16.01,      215P    386
16.01,0.,-16.01,16.01,0.,-1.601,1.601,-1.601,1.601;                  215P    387
502,32,5.,-19.880895352071,56.,5.,-19.880895352071,120.,5.,          217P    388
-26.0240273593462,56.,5.,-26.0240273593462,96.,5.,                   217P    389
-40.1901729282172,96.,5.,-40.1901729282172,120.,-5.,                 217P    390
-19.880895352071,120.,-5.,-40.1901729282172,120.,-5.,                217P    391
19.880895352071,120.,5.,19.880895352071,120.,-5.,                    217P    392
40.1901729282172,120.,5.,40.1901729282172,120.,-5.,                  217P    393
-19.880895352071,56.,-5.,-26.0240273593462,56.,-5.,                  217P    394
-40.1901729282172,96.,-5.,-26.0240273593462,96.,-5.,                 217P    395
19.880895352071,56.,-5.,26.0240273593462,56.,-5.,                    217P    396
26.0240273593462,96.,-5.,40.1901729282172,96.,5.,                    217P    397
19.880895352071,56.,5.,40.1901729282172,96.,5.,26.0240273593462,     217P    398
96.,5.,26.0240273593462,56.,40.5,4.95981953654678D-15,144.,40.5,     217P    399
0.,96.,26.5,0.,96.,20.5,2.51052593825207D-15,144.,20.5,              217P    400
2.51052593825207D-15,32.,26.5,3.24531401774049D-15,16.,16.,          217P    401
1.95943487863577D-15,16.,16.,1.95943487863577D-15,0.;                217P    402
504,48,85,217,1,217,2,87,217,3,217,1,89,217,4,217,3,91,217,5,        219P    403
217,4,93,217,6,217,5,95,217,6,217,2,97,217,2,217,7,99,217,8,217,     219P    404
6,101,217,8,217,7,103,217,9,217,10,105,217,9,217,11,107,217,12,      219P    405
217,11,109,217,10,217,12,111,217,13,217,1,113,217,14,217,13,115,     219P    406
217,3,217,14,117,217,7,217,13,119,217,15,217,8,121,217,16,217,       219P    407
15,123,217,14,217,16,125,217,17,217,9,127,217,17,217,18,129,217,     219P    408
19,217,18,131,217,20,217,19,133,217,11,217,20,135,217,10,217,21,     219P    409
137,217,22,217,12,139,217,23,217,22,141,217,24,217,23,143,217,       219P    410
21,217,24,145,217,21,217,17,147,217,18,217,24,149,217,25,217,25,     219P    411
151,217,25,217,26,153,217,22,217,26,155,217,15,217,20,157,217,       219P    412
26,217,5,159,217,19,217,16,161,217,4,217,27,163,217,27,217,23,       219P    413
165,217,28,217,28,167,217,28,217,29,169,217,29,217,29,171,217,       219P    414
30,217,30,173,217,31,217,31,175,217,27,217,30,177,217,31,217,32,     219P    415
179,217,32,217,32;                                                   219P    416
406,1,6HSolid1;                                                      221P    417
314,74.5098039215686,73.7254901960784,72.9411764705882,;             223P    418
S      1G      2D    224P    418                                        T      1
