                                                                        S      1
,,,6Hspigot,22HAutodesk Inventor 2019,7Hunknown,32,38,7,99,15,,1.,2,2HMMG      1
,1,0.08,15H20210806.224429,0.01,10000.,5Hganes,,11,0,15H20210118.114712;G      2
     186       1                                                00000000D      1
     186            -127       1       0                               0D      2
     514       2                                                00010000D      3
     514                       1       1                               0D      4
     510       3                                                00010000D      5
     510            -127       1       1                               0D      6
     510       4                                                00010000D      7
     510            -127       1       1                               0D      8
     510       5                                                00010000D      9
     510            -127       1       1                               0D     10
     510       6                                                00010000D     11
     510            -127       1       1                               0D     12
     510       7                                                00010000D     13
     510            -127       1       1                               0D     14
     510       8                                                00010000D     15
     510            -127       1       1                               0D     16
     510       9                                                00010000D     17
     510            -127       1       1                               0D     18
     510      10                                                00010000D     19
     510            -127       1       1                               0D     20
     510      11                                                00010000D     21
     510            -127       1       1                               0D     22
     510      12                                                00010000D     23
     510            -127       1       1                               0D     24
     510      13                                                00010000D     25
     510            -127       1       1                               0D     26
     508      14                                                00010000D     27
     508                       1       1                               0D     28
     508      15                                                00010000D     29
     508                       1       1                               0D     30
     508      16                                                00010000D     31
     508                       1       1                               0D     32
     508      17                                                00010000D     33
     508                       1       1                               0D     34
     508      18                                                00010000D     35
     508                       1       1                               0D     36
     508      19                                                00010000D     37
     508                       1       1                               0D     38
     508      20                                                00010000D     39
     508                       1       1                               0D     40
     508      21                                                00010000D     41
     508                       1       1                               0D     42
     508      22                                                00010000D     43
     508                       1       1                               0D     44
     508      23                                                00010000D     45
     508                       1       1                               0D     46
     508      24                                                00010000D     47
     508                       1       1                               0D     48
     508      25                                                00010000D     49
     508                       1       1                               0D     50
     508      26                                                00010000D     51
     508                       1       1                               0D     52
     508      27                                                00010000D     53
     508                       1       1                               0D     54
     508      28                                                00010000D     55
     508                       1       1                               0D     56
     126      29                                                00010000D     57
     126       0               2       0                               0D     58
     126      31                                                00010000D     59
     126       0               4       0                               0D     60
     126      35                                                00010000D     61
     126       0               2       0                               0D     62
     126      37                                                00010000D     63
     126       0               3       0                               0D     64
     126      40                                                00010000D     65
     126       0               6       0                               0D     66
     126      46                                                00010000D     67
     126       0               5       0                               0D     68
     126      51                                                00010000D     69
     126       0               4       0                               0D     70
     126      55                                                00010000D     71
     126       0               2       0                               0D     72
     126      57                                                00010000D     73
     126       0               2       0                               0D     74
     126      59                                                00010000D     75
     126       0               4       0                               0D     76
     126      63                                                00010000D     77
     126       0               5       0                               0D     78
     126      68                                                00010000D     79
     126       0               6       0                               0D     80
     126      74                                                00010000D     81
     126       0              10       0                               0D     82
     126      84                                                00010000D     83
     126       0               2       0                               0D     84
     126      86                                                00010000D     85
     126       0              10       0                               0D     86
     126      96                                                00010000D     87
     126       0              10       0                               0D     88
     126     106                                                00010000D     89
     126       0              10       0                               0D     90
     126     116                                                00010000D     91
     126       0              10       0                               0D     92
     126     126                                                00010000D     93
     126       0               2       0                               0D     94
     126     128                                                00010000D     95
     126       0               2       0                               0D     96
     126     130                                                00010000D     97
     126       0              10       0                               0D     98
     128     140                                                00010000D     99
     128       0    -127       6       0                               0D    100
     128     146                                                00010000D    101
     128       0    -127       6       0                               0D    102
     128     152                                                00010000D    103
     128       0    -127       6       0                               0D    104
     128     158                                                00010000D    105
     128       0    -127       6       0                               0D    106
     128     164                                                00010000D    107
     128       0    -127      13       0                               0D    108
     128     177                                                00010000D    109
     128       0    -127       3       0                               0D    110
     128     180                                                00010000D    111
     128       0    -127       3       0                               0D    112
     128     183                                                00010000D    113
     128       0    -127      12       0                               0D    114
     128     195                                                00010000D    115
     128       0    -127       3       0                               0D    116
     128     198                                                00010000D    117
     128       0    -127      11       0                               0D    118
     128     209                                                00010000D    119
     128       0    -127       3       0                               0D    120
     502     212                                                00010000D    121
     502                       7       1                               0D    122
     504     219                                                00010001D    123
     504                       6       1                               0D    124
     406     225                                                00000000D    125
     406                       1      15                               0D    126
     314     226                                                00000200D    127
     314                       1       0                               0D    128
186,3,1,0,0,1,125;                                                     1P      1
514,11,5,1,7,1,9,1,11,1,13,1,15,1,17,1,19,1,21,1,23,1,25,1;            3P      2
510,99,1,1,27;                                                         5P      3
510,101,1,1,29;                                                        7P      4
510,103,1,1,31;                                                        9P      5
510,105,1,1,33;                                                       11P      6
510,107,3,1,35,37,39;                                                 13P      7
510,109,1,1,41;                                                       15P      8
510,111,2,1,43,45;                                                    17P      9
510,113,1,1,47;                                                       19P     10
510,115,2,1,49,51;                                                    21P     11
510,117,1,1,53;                                                       23P     12
510,119,1,1,55;                                                       25P     13
508,4,0,123,1,0,0,0,123,2,0,0,0,123,3,0,0,0,123,4,1,0;                27P     14
508,4,0,123,5,0,0,0,123,4,0,0,0,123,6,0,0,0,123,7,1,0;                29P     15
508,4,0,123,8,0,0,0,123,7,0,0,0,123,9,0,0,0,123,10,1,0;               31P     16
508,4,0,123,11,0,0,0,123,10,0,0,0,123,12,0,0,0,123,2,1,0;             33P     17
508,4,0,123,13,0,0,0,123,14,1,0,0,123,15,0,0,0,123,14,0,0;            35P     18
508,4,0,123,8,1,0,0,123,11,1,0,0,123,1,1,0,0,123,5,1,0;               37P     19
508,4,0,123,9,1,0,0,123,6,1,0,0,123,3,1,0,0,123,12,1,0;               39P     20
508,1,0,123,13,1,0;                                                   41P     21
508,1,0,123,16,1,0;                                                   43P     22
508,1,0,123,17,1,0;                                                   45P     23
508,4,0,123,18,0,0,0,123,19,1,0,0,123,16,0,0,0,123,19,0,0;            47P     24
508,1,0,123,18,1,0;                                                   49P     25
508,1,0,123,15,1,0;                                                   51P     26
508,4,0,123,17,0,0,0,123,20,1,0,0,123,21,0,0,0,123,20,0,0;            53P     27
508,1,0,123,21,1,0;                                                   55P     28
126,1,1,0,0,1,0,-9.3,-9.3,-1.9,-1.9,1.,1.,5.,-19.880895352071,        57P     29
123.,5.,-19.880895352071,49.,-9.3,-1.9,0.,0.,0.;                      57P     30
126,1,1,0,0,1,0,-1.9880895352071,-1.9880895352071,                    59P     31
1.9880895352071,1.9880895352071,1.,1.,5.,19.880895352071,123.,        59P     32
5.,-19.880895352071,123.,-1.9880895352071,1.9880895352071,0.,0.,      59P     33
0.;                                                                   59P     34
126,1,1,0,0,1,0,1.9,1.9,9.3,9.3,1.,1.,5.,19.880895352071,49.,5.,      61P     35
19.880895352071,123.,1.9,9.3,0.,0.,0.;                                61P     36
126,1,1,0,0,1,0,-1.9880895352071,-1.9880895352071,                    63P     37
1.9880895352071,1.9880895352071,1.,1.,5.,19.880895352071,49.,5.,      63P     38
-19.880895352071,49.,-1.9880895352071,1.9880895352071,0.,0.,0.;       63P     39
126,2,2,0,0,0,0,-1.8171841182042,-1.8171841182042,                    65P     40
-1.8171841182042,-1.32440853538559,-1.32440853538559,                 65P     41
-1.32440853538559,1.,0.969799773271759,1.,5.,-19.880895352071,        65P     42
49.,-2.22044604925031D-15,-21.1383839891407,49.,-5.,                  65P     43
-19.880895352071,49.,-1.8171841182042,-1.32440853538559,0.,0.,        65P     44
0.;                                                                   65P     45
126,2,2,0,0,0,0,1.32440853538559,1.32440853538559,                    67P     46
1.32440853538559,1.8171841182042,1.8171841182042,                     67P     47
1.8171841182042,1.,0.969799773271759,1.,-5.,19.880895352071,49.,      67P     48
-2.22044604925031D-15,21.1383839891407,49.,5.,19.880895352071,        67P     49
49.,1.32440853538559,1.8171841182042,0.,0.,0.;                        67P     50
126,1,1,0,0,1,0,-1.9880895352071,-1.9880895352071,                    69P     51
1.9880895352071,1.9880895352071,1.,1.,-5.,19.880895352071,49.,        69P     52
-5.,-19.880895352071,49.,-1.9880895352071,1.9880895352071,0.,0.,      69P     53
0.;                                                                   69P     54
126,1,1,0,0,1,0,1.9,1.9,9.3,9.3,1.,1.,-5.,-19.880895352071,49.,       71P     55
-5.,-19.880895352071,123.,1.9,9.3,0.,0.,0.;                           71P     56
126,1,1,0,0,1,0,-9.3,-9.3,-1.9,-1.9,1.,1.,-5.,19.880895352071,        73P     57
123.,-5.,19.880895352071,49.,-9.3,-1.9,0.,0.,0.;                      73P     58
126,1,1,0,0,1,0,-1.9880895352071,-1.9880895352071,                    75P     59
1.9880895352071,1.9880895352071,1.,1.,-5.,19.880895352071,123.,       75P     60
-5.,-19.880895352071,123.,-1.9880895352071,1.9880895352071,0.,        75P     61
0.,0.;                                                                75P     62
126,2,2,0,0,0,0,1.32440853538559,1.32440853538559,                    77P     63
1.32440853538559,1.8171841182042,1.8171841182042,                     77P     64
1.8171841182042,1.,0.969799773271759,1.,-5.,-19.880895352071,         77P     65
123.,-2.22044604925031D-15,-21.1383839891407,123.,5.,                 77P     66
-19.880895352071,123.,1.32440853538559,1.8171841182042,0.,0.,0.;      77P     67
126,2,2,0,0,0,0,-1.8171841182042,-1.8171841182042,                    79P     68
-1.8171841182042,-1.32440853538559,-1.32440853538559,                 79P     69
-1.32440853538559,1.,0.969799773271759,1.,5.,19.880895352071,         79P     70
123.,-2.22044604925031D-15,21.1383839891407,123.,-5.,                 79P     71
19.880895352071,123.,-1.8171841182042,-1.32440853538559,0.,0.,        79P     72
0.;                                                                   79P     73
126,8,2,0,1,0,0,-3.14159265358979,-3.14159265358979,                  81P     74
-3.14159265358979,-1.5707963267949,-1.5707963267949,0.,0.,            81P     75
1.5707963267949,1.5707963267949,3.14159265358979,                     81P     76
3.14159265358979,3.14159265358979,1.,0.707106781186548,1.,            81P     77
0.707106781186548,1.,0.707106781186548,1.,0.707106781186548,1.,       81P     78
20.5,2.51052593825207D-15,142.,20.5,20.5,142.,                        81P     79
-1.25526296912604D-15,20.5,142.,-20.5,20.5,142.,-20.5,0.,142.,        81P     80
-20.5,-20.5,142.,-1.25526296912604D-15,-20.5,142.,20.5,-20.5,         81P     81
142.,20.5,-2.51052593825207D-15,142.,-3.14159265358979,               81P     82
3.14159265358979,0.,0.,0.;                                            81P     83
126,1,1,0,0,1,0,-5.46341463414634,-5.46341463414634,0.,0.,1.,1.,      83P     84
20.5,0.,142.,20.5,0.,30.,-5.46341463414634,0.,0.,0.,0.;               83P     85
126,8,2,0,1,0,0,-3.14159265358979,-3.14159265358979,                  85P     86
-3.14159265358979,-1.5707963267949,-1.5707963267949,0.,0.,            85P     87
1.5707963267949,1.5707963267949,3.14159265358979,                     85P     88
3.14159265358979,3.14159265358979,1.,0.707106781186548,1.,            85P     89
0.707106781186548,1.,0.707106781186548,1.,0.707106781186548,1.,       85P     90
20.5,-2.51052593825207D-15,30.,20.5,-20.5,30.,                        85P     91
-1.25526296912604D-15,-20.5,30.,-20.5,-20.5,30.,-20.5,0.,30.,         85P     92
-20.5,20.5,30.,-1.25526296912604D-15,20.5,30.,20.5,20.5,30.,          85P     93
20.5,2.51052593825207D-15,30.,-3.14159265358979,                      85P     94
3.14159265358979,0.,0.,0.;                                            85P     95
126,8,2,0,1,0,0,-3.14159265358979,-3.14159265358979,                  87P     96
-3.14159265358979,-1.5707963267949,-1.5707963267949,0.,0.,            87P     97
1.5707963267949,1.5707963267949,3.14159265358979,                     87P     98
3.14159265358979,3.14159265358979,1.,0.707106781186548,1.,            87P     99
0.707106781186548,1.,0.707106781186548,1.,0.707106781186548,1.,       87P    100
24.,-2.93915231795365D-15,16.,24.,-24.,16.,                           87P    101
-1.46957615897682D-15,-24.,16.,-24.,-24.,16.,-24.,0.,16.,-24.,        87P    102
24.,16.,-1.46957615897682D-15,24.,16.,24.,24.,16.,24.,                87P    103
2.93915231795365D-15,16.,-3.14159265358979,3.14159265358979,0.,       87P    104
0.,0.;                                                                87P    105
126,8,2,0,1,0,0,-3.14159265358979,-3.14159265358979,                  89P    106
-3.14159265358979,-1.5707963267949,-1.5707963267949,0.,0.,            89P    107
1.5707963267949,1.5707963267949,3.14159265358979,                     89P    108
3.14159265358979,3.14159265358979,1.,0.707106781186548,1.,            89P    109
0.707106781186548,1.,0.707106781186548,1.,0.707106781186548,1.,       89P    110
16.,1.95943487863577D-15,16.,16.,16.,16.,-9.79717439317883D-16,       89P    111
16.,16.,-16.,16.,16.,-16.,0.,16.,-16.,-16.,16.,                       89P    112
-9.79717439317883D-16,-16.,16.,16.,-16.,16.,16.,                      89P    113
-1.95943487863577D-15,16.,-3.14159265358979,3.14159265358979,0.,      89P    114
0.,0.;                                                                89P    115
126,8,2,0,1,0,0,-3.14159265358979,-3.14159265358979,                  91P    116
-3.14159265358979,-1.5707963267949,-1.5707963267949,0.,0.,            91P    117
1.5707963267949,1.5707963267949,3.14159265358979,                     91P    118
3.14159265358979,3.14159265358979,1.,0.707106781186548,1.,            91P    119
0.707106781186548,1.,0.707106781186548,1.,0.707106781186548,1.,       91P    120
24.,2.93915231795365D-15,30.,24.,24.,30.,-1.46957615897682D-15,       91P    121
24.,30.,-24.,24.,30.,-24.,0.,30.,-24.,-24.,30.,                       91P    122
-1.46957615897682D-15,-24.,30.,24.,-24.,30.,24.,                      91P    123
-2.93915231795365D-15,30.,-3.14159265358979,3.14159265358979,0.,      91P    124
0.,0.;                                                                91P    125
126,1,1,0,0,1,0,-0.583333333333333,-0.583333333333333,0.,0.,1.,       93P    126
1.,24.,0.,30.,24.,0.,16.,-0.583333333333333,0.,0.,0.,0.;              93P    127
126,1,1,0,0,1,0,-1.,-1.,0.,0.,1.,1.,16.,0.,16.,16.,0.,0.,-1.,0.,      95P    128
0.,0.,0.;                                                             95P    129
126,8,2,0,1,0,0,-3.14159265358979,-3.14159265358979,                  97P    130
-3.14159265358979,-1.5707963267949,-1.5707963267949,0.,0.,            97P    131
1.5707963267949,1.5707963267949,3.14159265358979,                     97P    132
3.14159265358979,3.14159265358979,1.,0.707106781186548,1.,            97P    133
0.707106781186548,1.,0.707106781186548,1.,0.707106781186548,1.,       97P    134
16.,-1.95943487863577D-15,0.,16.,-16.,0.,-9.79717439317883D-16,       97P    135
-16.,0.,-16.,-16.,0.,-16.,0.,0.,-16.,16.,0.,                          97P    136
-9.79717439317883D-16,16.,0.,16.,16.,0.,16.,                          97P    137
1.95943487863577D-15,0.,-3.14159265358979,3.14159265358979,0.,        97P    138
0.,0.;                                                                97P    139
128,1,1,1,1,0,0,1,0,0,-0.001,-0.001,7.401,7.401,                      99P    140
-1.9890895352071,-1.9890895352071,1.9890895352071,                    99P    141
1.9890895352071,1.,1.,1.,1.,5.,-19.890895352071,48.99,5.,             99P    142
-19.890895352071,123.01,5.,19.890895352071,48.99,5.,                  99P    143
19.890895352071,123.01,-0.001,7.401,-1.9890895352071,                 99P    144
1.9890895352071;                                                      99P    145
128,1,1,1,1,0,0,1,0,0,-0.001,-0.001,1.001,1.001,                     101P    146
-2.11483839891407,-2.11483839891407,2.11483839891407,                101P    147
2.11483839891407,1.,1.,1.,1.,-5.01,-21.1483839891407,49.,5.01,       101P    148
-21.1483839891407,49.,-5.01,21.1483839891407,49.,5.01,               101P    149
21.1483839891407,49.,-0.001,1.001,-2.11483839891407,                 101P    150
2.11483839891407;                                                    101P    151
128,1,1,1,1,0,0,1,0,0,-0.001,-0.001,7.401,7.401,                     103P    152
-1.9890895352071,-1.9890895352071,1.9890895352071,                   103P    153
1.9890895352071,1.,1.,1.,1.,-5.,-19.890895352071,123.01,-5.,         103P    154
-19.890895352071,48.99,-5.,19.890895352071,123.01,-5.,               103P    155
19.890895352071,48.99,-0.001,7.401,-1.9890895352071,                 103P    156
1.9890895352071;                                                     103P    157
128,1,1,1,1,0,0,1,0,0,-0.00100000000000011,-0.00100000000000011,     105P    158
1.001,1.001,-2.11483839891407,-2.11483839891407,                     105P    159
2.11483839891407,2.11483839891407,1.,1.,1.,1.,5.01,                  105P    160
-21.1483839891407,123.,-5.01,-21.1483839891407,123.,5.01,            105P    161
21.1483839891407,123.,-5.01,21.1483839891407,123.,                   105P    162
-0.00100000000000011,1.001,-2.11483839891407,2.11483839891407;       105P    163
128,1,8,1,2,0,1,0,0,1,0.,0.,5.46341463414634,5.46341463414634,       107P    164
-3.14159265358979,-3.14159265358979,-3.14159265358979,               107P    165
-1.5707963267949,-1.5707963267949,0.,0.,1.5707963267949,             107P    166
1.5707963267949,3.14159265358979,3.14159265358979,                   107P    167
3.14159265358979,1.,1.,0.707106781186548,0.707106781186548,1.,       107P    168
1.,0.707106781186548,0.707106781186548,1.,1.,0.707106781186548,      107P    169
0.707106781186548,1.,1.,0.707106781186548,0.707106781186548,1.,      107P    170
1.,20.5,0.,142.,20.5,0.,30.,20.5,20.5,142.,20.5,20.5,30.,0.,         107P    171
20.5,142.,0.,20.5,30.,-20.5,20.5,142.,-20.5,20.5,30.,-20.5,0.,       107P    172
142.,-20.5,0.,30.,-20.5,-20.5,142.,-20.5,-20.5,30.,0.,-20.5,         107P    173
142.,0.,-20.5,30.,20.5,-20.5,142.,20.5,-20.5,30.,20.5,0.,142.,       107P    174
20.5,0.,30.,0.,5.46341463414634,-3.14159265358979,                   107P    175
3.14159265358979;                                                    107P    176
128,1,1,1,1,0,0,1,0,0,-2.051,-2.051,2.051,2.051,-2.051,-2.051,       109P    177
2.051,2.051,1.,1.,1.,1.,-20.51,-20.51,142.,20.51,-20.51,142.,        109P    178
-20.51,20.51,142.,20.51,20.51,142.,-2.051,2.051,-2.051,2.051;        109P    179
128,1,1,1,1,0,0,1,0,0,-2.401,-2.401,2.401,2.401,-2.401,-2.401,       111P    180
2.401,2.401,1.,1.,1.,1.,24.01,-24.01,16.,-24.01,-24.01,16.,          111P    181
24.01,24.01,16.,-24.01,24.01,16.,-2.401,2.401,-2.401,2.401;          111P    182
128,1,8,1,2,0,1,0,0,1,0.,0.,0.583333333333333,0.583333333333333,     113P    183
-3.14159265358979,-3.14159265358979,-3.14159265358979,               113P    184
-1.5707963267949,-1.5707963267949,0.,0.,1.5707963267949,             113P    185
1.5707963267949,3.14159265358979,3.14159265358979,                   113P    186
3.14159265358979,1.,1.,0.707106781186548,0.707106781186548,1.,       113P    187
1.,0.707106781186548,0.707106781186548,1.,1.,0.707106781186548,      113P    188
0.707106781186548,1.,1.,0.707106781186548,0.707106781186548,1.,      113P    189
1.,24.,0.,30.,24.,0.,16.,24.,24.,30.,24.,24.,16.,0.,24.,30.,0.,      113P    190
24.,16.,-24.,24.,30.,-24.,24.,16.,-24.,0.,30.,-24.,0.,16.,-24.,      113P    191
-24.,30.,-24.,-24.,16.,0.,-24.,30.,0.,-24.,16.,24.,-24.,30.,24.,     113P    192
-24.,16.,24.,0.,30.,24.,0.,16.,0.,0.583333333333333,                 113P    193
-3.14159265358979,3.14159265358979;                                  113P    194
128,1,1,1,1,0,0,1,0,0,-2.401,-2.401,2.401,2.401,-2.401,-2.401,       115P    195
2.401,2.401,1.,1.,1.,1.,-24.01,-24.01,30.,24.01,-24.01,30.,          115P    196
-24.01,24.01,30.,24.01,24.01,30.,-2.401,2.401,-2.401,2.401;          115P    197
128,1,8,1,2,0,1,0,0,1,0.,0.,1.,1.,-3.14159265358979,                 117P    198
-3.14159265358979,-3.14159265358979,-1.5707963267949,                117P    199
-1.5707963267949,0.,0.,1.5707963267949,1.5707963267949,              117P    200
3.14159265358979,3.14159265358979,3.14159265358979,1.,1.,            117P    201
0.707106781186548,0.707106781186548,1.,1.,0.707106781186548,         117P    202
0.707106781186548,1.,1.,0.707106781186548,0.707106781186548,1.,      117P    203
1.,0.707106781186548,0.707106781186548,1.,1.,16.,0.,16.,16.,0.,      117P    204
0.,16.,16.,16.,16.,16.,0.,0.,16.,16.,0.,16.,0.,-16.,16.,16.,         117P    205
-16.,16.,0.,-16.,0.,16.,-16.,0.,0.,-16.,-16.,16.,-16.,-16.,0.,       117P    206
0.,-16.,16.,0.,-16.,0.,16.,-16.,16.,16.,-16.,0.,16.,0.,16.,16.,      117P    207
0.,0.,0.,1.,-3.14159265358979,3.14159265358979;                      117P    208
128,1,1,1,1,0,0,1,0,0,-1.601,-1.601,1.601,1.601,-1.601,-1.601,       119P    209
1.601,1.601,1.,1.,1.,1.,16.01,-16.01,0.,-16.01,-16.01,0.,16.01,      119P    210
16.01,0.,-16.01,16.01,0.,-1.601,1.601,-1.601,1.601;                  119P    211
502,14,5.,-19.880895352071,123.,5.,-19.880895352071,49.,5.,          121P    212
19.880895352071,123.,5.,19.880895352071,49.,-5.,                     121P    213
-19.880895352071,49.,-5.,19.880895352071,49.,-5.,                    121P    214
-19.880895352071,123.,-5.,19.880895352071,123.,20.5,                 121P    215
2.51052593825207D-15,142.,20.5,2.51052593825207D-15,30.,24.,         121P    216
2.93915231795365D-15,16.,16.,1.95943487863577D-15,16.,24.,           121P    217
2.93915231795365D-15,30.,16.,1.95943487863577D-15,0.;                121P    218
504,21,57,121,1,121,2,59,121,3,121,1,61,121,4,121,3,63,121,4,        123P    219
121,2,65,121,2,121,5,67,121,6,121,4,69,121,6,121,5,71,121,5,121,     123P    220
7,73,121,8,121,6,75,121,8,121,7,77,121,7,121,1,79,121,3,121,8,       123P    221
81,121,9,121,9,83,121,9,121,10,85,121,10,121,10,87,121,11,121,       123P    222
11,89,121,12,121,12,91,121,13,121,13,93,121,13,121,11,95,121,12,     123P    223
121,14,97,121,14,121,14;                                             123P    224
406,1,6HSolid1;                                                      125P    225
314,74.5098039215686,73.7254901960784,72.9411764705882,;             127P    226
S      1G      2D    128P    226                                        T      1
